<svg xmlns="http://www.w3.org/2000/svg" style="width:0; height:0; visibility:hidden;">
        <symbol id="arrows_bl_r" viewBox="0 0 62 116">
     <path d="M40,121H35a4,4,0,0,1,0-6L86,65,35,14a4,4,0,0,1,6-6L94,62a4,4,0,0,1,0,6Z" transform="translate(-33 -6)"/>
    </symbol>
    <symbol id="arrow_slider_right_black" viewBox="0 0 189 306">
     <path d="M36 0L0 36 117 153 0 270 36 306 189 153 36 0z"/>
    </symbol>
    <symbol id="arrow_slider_right_white" viewBox="0 0 316 512">
      <path class="a" d="M60 0L0 60 196 256 0 452 60 512 316 256 60 0z"/>
    </symbol>
    <symbol id="avatar" viewBox="0 0 482.9 482.9">
      <g fill="#9b9c9c"><path d="M239.7,260.2c0.5,0,1,0,1.6,0c0.2,0,0.4,0,0.6,0c0.3,0,0.7,0,1,0c29.3-0.5,53-10.8,70.5-30.5 c38.5-43.4,32.1-117.8,31.4-124.9c-2.5-53.3-27.7-78.8-48.5-90.7C280.8,5.2,262.7,0.4,242.5,0h-0.7c-0.1,0-0.3,0-0.4,0h-0.6 c-11.1,0-32.9,1.8-53.8,13.7c-21,11.9-46.6,37.4-49.1,91.1c-0.7,7.1-7.1,81.5,31.4,124.9C186.7,249.4,210.4,259.7,239.7,260.2z M164.6,107.3c0-0.3,0.1-0.6,0.1-0.8c3.3-71.7,54.2-79.4,76-79.4h0.4c0.2,0,0.5,0,0.8,0c27,0.6,72.9,11.6,76,79.4 c0,0.3,0,0.6,0.1,0.8c0.1,0.7,7.1,68.7-24.7,104.5c-12.6,14.2-29.4,21.2-51.5,21.4c-0.2,0-0.3,0-0.5,0l0,0c-0.2,0-0.3,0-0.5,0 c-22-0.2-38.9-7.2-51.4-21.4C157.7,176.2,164.5,107.9,164.6,107.3z"/><path d="M446.8,383.6c0-0.1,0-0.2,0-0.3c0-0.8-0.1-1.6-0.1-2.5c-0.6-19.8-1.9-66.1-45.3-80.9c-0.3-0.1-0.7-0.2-1-0.3 c-45.1-11.5-82.6-37.5-83-37.8c-6.1-4.3-14.5-2.8-18.8,3.3c-4.3,6.1-2.8,14.5,3.3,18.8c1.7,1.2,41.5,28.9,91.3,41.7 c23.3,8.3,25.9,33.2,26.6,56c0,0.9,0,1.7,0.1,2.5c0.1,9-0.5,22.9-2.1,30.9c-16.2,9.2-79.7,41-176.3,41 c-96.2,0-160.1-31.9-176.4-41.1c-1.6-8-2.3-21.9-2.1-30.9c0-0.8,0.1-1.6,0.1-2.5c0.7-22.8,3.3-47.7,26.6-56 c49.8-12.8,89.6-40.6,91.3-41.7c6.1-4.3,7.6-12.7,3.3-18.8c-4.3-6.1-12.7-7.6-18.8-3.3c-0.4,0.3-37.7,26.3-83,37.8 c-0.4,0.1-0.7,0.2-1,0.3c-43.4,14.9-44.7,61.2-45.3,80.9c0,0.9,0,1.7-0.1,2.5c0,0.1,0,0.2,0,0.3c-0.1,5.2-0.2,31.9,5.1,45.3 c1,2.6,2.8,4.8,5.2,6.3c3,2,74.9,47.8,195.2,47.8s192.2-45.9,195.2-47.8c2.3-1.5,4.2-3.7,5.2-6.3 C447,415.5,446.9,388.8,446.8,383.6z"/></g>
    </symbol>
    <symbol id="filters"  viewBox="0 0 54 56">
      <path d="M41.08,48H2a1,1,0,0,0,0,2H41.08A7,7,0,1,0,41.08,48Z" transform="translate(-1)"/><path d="M20.69,27H2a1,1,0,0,0,0,2H20.63A7.2,7.2,0,0,0,35,29H54a1,1,0,0,0,0-2H34.89A7.2,7.2,0,0,0,20.69,27Z" transform="translate(-1)"/><path d="M8,0a7,7,0,1,0,6.92,8H54a1,1,0,0,0,0-2H14.92A7,7,0,0,0,8,0Z" transform="translate(-1)"/>
    </symbol>
    <symbol id="menu"  viewBox="0 0 56 56">
      <path d="M8,40a8,8,0,1,0,8,8A8,8,0,0,0,8,40Z"/><path d="M28,40a8,8,0,1,0,8,8A8,8,0,0,0,28,40Z"/><path d="M48,40a8,8,0,1,0,8,8A8,8,0,0,0,48,40Z"/><path d="M8,20a8,8,0,1,0,8,8A8,8,0,0,0,8,20Z"/><path d="M28,20a8,8,0,1,0,8,8A8,8,0,0,0,28,20Z"/><path d="M48,20a8,8,0,1,0,8,8A8,8,0,0,0,48,20Z"/><path d="M8,0a8,8,0,1,0,8,8A8,8,0,0,0,8,0Z"/><path d="M28,0a8,8,0,1,0,8,8A8,8,0,0,0,28,0Z"/><path d="M48,16a8,8,0,1,0-8-8A8,8,0,0,0,48,16Z"/>
    </symbol>
    <symbol id="bookmark-outline" viewBox="0 0 792 792">
      <path d="M659.277,792c-9.004,0-17.707-3.271-24.459-9.213l-238.825-195.39l-239.152,195.69c-6.4,5.641-15.076,8.912-24.08,8.912 c-20.429,0-37.037-16.62-37.037-37.036V84.856C95.725,38.07,133.808,0,180.607,0h430.799c46.799,0,84.869,38.07,84.869,84.856 V754.95C696.287,775.38,679.68,792,659.277,792z M395.993,557.402c2.944,0,5.876,0.981,8.284,2.957l247.463,202.47 c7.615,6.675,18.361,0.798,18.361-7.865V84.856c0.012-32.352-26.318-58.683-58.695-58.683H180.607 c-32.364,0-58.708,26.331-58.708,58.683V754.95c0,5.994,4.868,10.862,10.862,10.862c3.376,0,5.745-1.465,7.158-2.695 l247.79-202.771C390.117,558.384,393.062,557.402,395.993,557.402z" fill="#9b9c9c"/>
    </symbol>
    <symbol id="burger" viewBox="0 0 40 40">
      <path d="M4.21,6.029h31.593c1.211,0,2.199,0.987,2.199,2.199v21.591c0,1.211-0.988,2.199-2.199,2.199H4.21c-1.212,0-2.2-0.988-2.2-2.199 V8.228C2.01,7.017,2.998,6.029,4.21,6.029L4.21,6.029z M23.006,11.007h11.997 M23.006,27h11.997 M23.006,23.002h11.997 M23.006,19.003h11.997 M23.006,15.005h11.997" fill-rule="evenodd" clip-rule="evenodd" fill="none" stroke="#9b9c9c" stroke-width="1.33" stroke-miterlimit="10"/><path d="M12.281,19.949l-6.536,3.253l0,0c-0.469,0.252-0.741,0.708-0.741,1.24v1.15C5.004,26.368,5.636,27,6.411,27h12.182 C19.368,27,20,26.368,20,25.592v-1.15c0-0.532-0.272-0.987-0.74-1.24l-6.397-3.253" fill-rule="evenodd" clip-rule="evenodd" fill="none" stroke="#9b9c9c" stroke-width="1.33" stroke-miterlimit="10"/><ellipse cx="12.502" cy="15.577" rx="3.855" ry="4.412" fill-rule="evenodd" clip-rule="evenodd" fill="none" stroke="#9b9c9c" stroke-width="1.33" stroke-miterlimit="10"/>
    </symbol>
    <symbol id="christmas-present" viewBox="0 0 440.85 440.85">
      <path d="M422.249,103.702h-49.293c0-26.042-3.72-80.915-61.384-80.915c-27.902,0-66.965,14.881-90.216,39.993 c-0.93,0-0.93,0-1.86,0c-23.252-25.112-62.314-39.993-90.216-39.993c-57.664,0-60.454,54.874-61.384,80.915H18.601 C8.371,103.702,0,112.073,0,122.303v98.587c0,8.371,6.51,15.811,13.951,17.671v160.901c0,10.231,8.371,18.601,18.601,18.601 h375.745c10.231,0,18.601-8.371,18.601-18.601V239.491c8.371-1.86,13.951-9.301,13.951-17.671v-99.517 C440.85,112.073,432.479,103.702,422.249,103.702z M180.432,395.742V225.54h79.055v170.201H180.432z M91.146,108.352 c0-38.133,6.51-62.314,38.133-62.314c26.042,0,58.594,14.881,75.335,34.412c-2.79,0.93-5.58,2.79-7.441,4.65 c-0.93,0.93-1.86,0.93-2.79,1.86c-0.93,0.93-1.86,1.86-1.86,1.86c-0.93,0.93-1.86,1.86-2.79,2.79c-0.93,0.93-0.93,0.93-1.86,1.86 c-0.93,1.86-1.86,3.72-2.79,5.58c0,0.93-0.93,0.93-0.93,1.86c-0.93,1.86-0.93,2.79-1.86,4.65c0,0.93,0,1.86-0.93,1.86 c0,1.86-0.93,4.65-0.93,7.44v0.93h-13.021H91.146C91.146,113.933,91.146,111.142,91.146,108.352z M212.054,86.961l1.86-0.93 c1.86,0,3.72-0.93,5.58-0.93c1.86,0,3.72,0,5.58,0.93l1.86,0.93c4.65,0.93,9.301,3.72,13.021,6.51c0.93,0.93,1.86,1.86,1.86,2.79 c0,0.93,0.93,0.93,0.93,1.86c0.93,0.93,0.93,1.86,1.86,2.79c0,0.93,0.93,1.86,0.93,2.79s0.93,1.86,0.93,2.79 c0,0.93,0.93,1.86,0.93,2.79s0,0.93,0.93,1.86c0,1.86,0.93,3.72,0.93,5.58v0.93h-60.454v-0.93c0-1.86,0-3.72,0.93-5.58 c0-0.93,0-0.93,0.93-1.86c0-0.93,0.93-1.86,0.93-2.79c0-0.93,0.93-1.86,0.93-1.86c0-0.93,0.93-1.86,0.93-2.79 c0.93-0.93,0.93-1.86,1.86-2.79c0-0.93,0.93-0.93,0.93-1.86c0.93-0.93,1.86-1.86,1.86-2.79c0,0,0,0,0.93,0 C203.684,90.681,207.404,88.821,212.054,86.961L212.054,86.961z M348.774,117.653h-76.265h-13.021v-0.93c0-2.79,0-4.65-0.93-7.44 c0-0.93,0-1.86-0.93-1.86c0-1.86-0.93-2.79-1.86-4.65c0-0.93-0.93-0.93-0.93-1.86c-0.93-1.86-1.86-3.72-2.79-5.58 c-0.93-0.93-0.93-0.93-1.86-1.86c-0.93-0.93-1.86-1.86-2.79-2.79c-0.93-0.93-1.86-1.86-1.86-1.86c-0.93-0.93-1.86-0.93-2.79-1.86 c-2.79-1.86-4.65-3.72-7.441-4.65c16.741-19.531,48.363-34.412,75.335-34.412c31.622,0,38.133,24.182,38.133,62.314 C348.774,111.142,348.774,113.933,348.774,117.653z M83.706,126.954h83.706v88.356H27.902v0.93h-4.65v-89.286H83.706z M263.208,215.309h-86.496v-88.356h4.65h9.301h57.664h9.301h4.65v88.356H263.208z M38.133,225.54h131.139h3.72v170.202H38.133 C38.133,395.742,38.133,225.54,38.133,225.54z M269.718,225.54h3.72h131.139v170.202H269.718 C269.718,395.742,269.718,225.54,269.718,225.54z M273.438,215.309v-88.356h83.706h61.384v89.286h-4.65v-0.93H273.438z" fill="#9b9c9c"/>
    </symbol>
    <symbol id="envelope" viewBox="0 0 39.474 39.474">
      <path d="M38.347,4.825c0.619,0,1.127,0.508,1.127,1.127v27.571c0,0.619-0.508,1.127-1.127,1.127h-0.27H1.381 h-0.27C0.492,34.649,0,34.141,0,33.522V5.952c0-0.619,0.492-1.127,1.111-1.127h0.27h0.317h0.587c11.825,0,23.65,0,35.49,0h0.302 H38.347z M19.729,20.348l8.444-7.301l6.904-5.984h-0.032H34.49c-9.65,0-19.316,0-28.983,0h-0.54h-0.54H4.381l6.904,5.984 L19.729,20.348z M29.633,14.729l-9.158,7.936c-0.413,0.365-1.048,0.381-1.476,0.016l-9.174-7.952L2.238,8.158v23.158l7.587-6.587 l4.254-3.667c0.46-0.413,1.175-0.365,1.571,0.111c0.413,0.46,0.349,1.175-0.111,1.571l-4.254,3.682l-6.904,5.968h30.697 l-6.904-5.968l-4.254-3.682c-0.46-0.397-0.508-1.111-0.111-1.571c0.413-0.476,1.111-0.524,1.571-0.111l4.254,3.667l7.603,6.587 V8.158L29.633,14.729z" fill="#9b9c9c"/>
    </symbol>
    <symbol id="euro" viewBox="0 0 295.82 295.82">
      <g fill="#9b9c9c"><path d="M147.91,0C66.124,0,0,66.124,0,147.91s66.124,147.91,147.91,147.91s147.91-66.124,147.91-147.91S229.696,0,147.91,0z M147.91,278.419c-71.345,0-130.509-59.164-130.509-130.509S76.565,17.401,147.91,17.401S278.419,76.565,278.419,147.91 S219.255,278.419,147.91,278.419z"/><path d="m212.295,172.272c-5.22-3.48-10.441-1.74-12.181,3.48-8.701,20.882-27.842,33.062-46.983,33.062-19.019,0-35.794-10.876-45.4-27.842h40.179c5.22,0 8.701-3.48 8.701-8.701s-3.48-8.701-8.701-8.701h-46.792c-1.131-4.994-1.931-10.163-1.931-15.661 0-4.838 0.574-9.466 1.462-13.921h47.262c5.22,0 8.701-3.48 8.701-8.701 0-5.22-3.48-8.701-8.701-8.701h-41.015c9.431-17.923 26.589-29.582 46.235-29.582 19.141,0 38.283,12.181 46.983,33.062 3.48,3.48 6.96,5.22 12.181,3.48 3.48-3.48 5.22-6.96 3.48-12.181-12.181-27.842-36.543-43.503-62.644-43.503-30.365,0-55.632,20.064-66.107,48.723h-19.159c-5.22,0-8.701,3.48-8.701,8.701s3.48,8.701 8.701,8.701h15.017c-0.557,4.002-1.096,8.004-1.096,12.181 0,6.003 0.748,11.798 1.949,17.401h-15.87c-5.22,0-8.701,3.48-8.701,8.701s3.48,8.701 8.701,8.701h21.804c11.937,25.771 36.264,43.503 63.445,43.503 26.102,0 50.463-15.661 62.644-40.023 3.497-5.219 1.757-10.439-3.463-12.179z"/></g>
    </symbol>
    <symbol id="fb" viewBox="0 0 52 96">
      <title>fb</title><path d="M72,0H60C46,0,37,9,37,24V35H24a2,2,0,0,0-2,2V52a2,2,0,0,0,2,2H37V94a2,2,0,0,0,2,2H55a2,2,0,0,0,2-2V54H71a2,2,0,0,0,2-2V37H57V25c0-4,1-7,7-7h8a2,2,0,0,0,2-2V2A2,2,0,0,0,72,0Z" transform="translate(-22)"/>
    </symbol>
    

    <symbol id="login" viewBox="0 0 499.1 499.1">
      <g fill="#9b9c9c"><path d="M0,249.6c0,9.5,7.7,17.2,17.2,17.2h327.6l-63.9,63.8c-6.7,6.7-6.7,17.6,0,24.3c3.3,3.3,7.7,5,12.1,5s8.8-1.7,12.1-5 l93.1-93.1c6.7-6.7,6.7-17.6,0-24.3l-93.1-93.1c-6.7-6.7-17.6-6.7-24.3,0c-6.7,6.7-6.7,17.6,0,24.3l63.8,63.8H17.2 C7.7,232.5,0,240.1,0,249.6z"/><path d="M396.4,494.2c56.7,0,102.7-46.1,102.7-102.8V107.7C499.1,51,453,4.9,396.4,4.9H112.7C56,4.9,10,51,10,107.7V166 c0,9.5,7.7,17.1,17.1,17.1c9.5,0,17.2-7.7,17.2-17.1v-58.3c0-37.7,30.7-68.5,68.4-68.5h283.7c37.7,0,68.4,30.7,68.4,68.5v283.7 c0,37.7-30.7,68.5-68.4,68.5H112.7c-37.7,0-68.4-30.7-68.4-68.5v-57.6c0-9.5-7.7-17.2-17.2-17.2S10,324.3,10,333.8v57.6 c0,56.7,46.1,102.8,102.7,102.8H396.4L396.4,494.2z"/></g>
    </symbol>
 
  
    <symbol id="placeholder" viewBox="0 0 477 477">
      <g fill="#9b9c9c"><path d="M238.4,0C133,0,47.2,85.8,47.2,191.2c0,12,1.1,24.1,3.4,35.9c0.1,0.7,0.5,2.8,1.3,6.4c2.9,12.9,7.2,25.6,12.8,37.7 c20.6,48.5,65.9,123,165.3,202.8c2.5,2,5.5,3,8.5,3s6-1,8.5-3c99.3-79.8,144.7-154.3,165.3-202.8c5.6-12.1,9.9-24.7,12.8-37.7 c0.8-3.6,1.2-5.7,1.3-6.4c2.2-11.8,3.4-23.9,3.4-35.9C429.6,85.8,343.8,0,238.4,0z M399.6,222.4c0,0.2-0.1,0.4-0.1,0.6 c-0.1,0.5-0.4,2-0.9,4.3c0,0.1,0,0.1,0,0.2c-2.5,11.2-6.2,22.1-11.1,32.6c-0.1,0.1-0.1,0.3-0.2,0.4 c-18.7,44.3-59.7,111.9-148.9,185.6c-89.2-73.7-130.2-141.3-148.9-185.6c-0.1-0.1-0.1-0.3-0.2-0.4c-4.8-10.4-8.5-21.4-11.1-32.6 c0-0.1,0-0.1,0-0.2c-0.6-2.3-0.8-3.8-0.9-4.3c0-0.2-0.1-0.4-0.1-0.7c-2-10.3-3-20.7-3-31.2c0-90.5,73.7-164.2,164.2-164.2 s164.2,73.7,164.2,164.2C402.6,201.7,401.6,212.2,399.6,222.4z"/><path d="M238.4,71.9c-66.9,0-121.4,54.5-121.4,121.4s54.5,121.4,121.4,121.4s121.4-54.5,121.4-121.4S305.3,71.9,238.4,71.9z M238.4,287.7c-52.1,0-94.4-42.4-94.4-94.4s42.4-94.4,94.4-94.4s94.4,42.4,94.4,94.4S290.5,287.7,238.4,287.7z"/></g>
    </symbol>

    <symbol id="skype" viewBox="0 0 400.932 400.932">
      <path d="M384.762,231.039c-6.361-8.792-9.309-19.53-9.297-30.382c0.001-0.063,0.001-0.126,0.001-0.19 c0-96.649-78.35-174.999-174.999-174.999c-21.143,0-41.402,3.763-60.162,10.64c-10.149,3.72-21.267,4.435-31.672,1.504 c-9.191-2.589-19.009-3.681-29.18-2.981c-42.725,2.94-77.121,37.955-79.335,80.724c-1.057,20.414,5.065,39.351,16.053,54.539 c6.361,8.792,9.309,19.53,9.296,30.382c0,0.063,0,0.126,0,0.19c0,96.649,78.349,174.999,174.999,174.999 c21.144,0,41.403-3.763,60.162-10.64c10.149-3.72,21.267-4.435,31.672-1.504c9.191,2.589,19.008,3.681,29.18,2.981 c42.725-2.94,77.12-37.954,79.335-80.722C401.872,265.166,395.75,246.228,384.762,231.039z M206.873,169.093 c35.286,8.391,88.608,21.071,88.608,79.806c0,28.934-14.249,51.006-40.124,62.149c-18.464,7.952-39.361,9.025-57.368,9.025 c-55.336,0-90.286-43.028-91.747-44.86c-9.062-11.366-7.197-27.928,4.17-36.99c11.364-9.066,27.926-7.196,36.99,4.167 c0.081,0.097,20.982,24.101,50.587,25.04c35.65,1.131,43.795-9.476,44.848-18.53c1.287-11.058-8.55-19.176-48.146-28.592 c-33.562-7.982-84.287-20.044-84.287-74.137c0-16.845,6.851-71.807,95.013-71.807c55.668,0,88.527,43.829,89.899,45.695 c8.61,11.713,6.096,28.189-5.617,36.798c-11.662,8.572-28.034,6.119-36.677-5.452c-0.62-0.797-19.429-21.723-47.605-24.398 c-21.32-2.025-42.37,5.663-42.37,17.02C163.047,156.06,169.092,160.108,206.873,169.093z" fill="#00aaf2"/>
    </symbol>
	</svg>