<?xml version="1.0" ?><!DOCTYPE svg  PUBLIC '-//W3C//DTD SVG 1.1//EN'  'http://www.w3.org/Graphics/SVG/1.1/DTD/svg11.dtd'><svg height="40px" id="els2_x5F_work" style="enable-background:new 0 0 40 40;" version="1.1" viewBox="0 0 40 40" width="40px" xml:space="preserve" xmlns="http://www.w3.org/2000/svg" xmlns:xlink="http://www.w3.org/1999/xlink"><path d="  M4.21,6.029h31.593c1.211,0,2.199,0.987,2.199,2.199v21.591c0,1.211-0.988,2.199-2.199,2.199H4.21c-1.212,0-2.2-0.988-2.2-2.199  V8.228C2.01,7.017,2.998,6.029,4.21,6.029L4.21,6.029z M23.006,11.007h11.997 M23.006,27h11.997 M23.006,23.002h11.997   M23.006,19.003h11.997 M23.006,15.005h11.997" style="fill-rule:evenodd;clip-rule:evenodd;fill:none;stroke:#fffff;stroke-width:1.33;stroke-miterlimit:10;"/><path d="  M12.281,19.949l-6.536,3.253l0,0c-0.469,0.252-0.741,0.708-0.741,1.24v1.15C5.004,26.368,5.636,27,6.411,27h12.182  C19.368,27,20,26.368,20,25.592v-1.15c0-0.532-0.272-0.987-0.74-1.24l-6.397-3.253" style="fill-rule:evenodd;clip-rule:evenodd;fill:none;stroke:#ffffff;stroke-width:1.33;stroke-miterlimit:10;"/><ellipse cx="12.502" cy="15.577" rx="3.855" ry="4.412" style="fill-rule:evenodd;clip-rule:evenodd;fill:none;stroke:#ffffff;stroke-width:1.33;stroke-miterlimit:10;"/></svg>