<svg xmlns="http://www.w3.org/2000/svg" viewBox="0 0 56 56"><title>menu(1)</title><path d="M8,40a8,8,0,1,0,8,8A8,8,0,0,0,8,40Z"/><path d="M28,40a8,8,0,1,0,8,8A8,8,0,0,0,28,40Z"/><path d="M48,40a8,8,0,1,0,8,8A8,8,0,0,0,48,40Z"/><path d="M8,20a8,8,0,1,0,8,8A8,8,0,0,0,8,20Z"/><path d="M28,20a8,8,0,1,0,8,8A8,8,0,0,0,28,20Z"/><path d="M48,20a8,8,0,1,0,8,8A8,8,0,0,0,48,20Z"/><path d="M8,0a8,8,0,1,0,8,8A8,8,0,0,0,8,0Z"/><path d="M28,0a8,8,0,1,0,8,8A8,8,0,0,0,28,0Z"/><path d="M48,16a8,8,0,1,0-8-8A8,8,0,0,0,48,16Z"/></svg>